<?xml version="1.0" encoding="UTF-8"?><svg id="Layer_1" xmlns="http://www.w3.org/2000/svg" width="1200" height="321.91" viewBox="0 0 1200 321.91"><defs><style>.cls-1{fill:#e54141;}.cls-2{fill:#fc9d35;}</style></defs><path class="cls-1" d="M199.05,62.52c-16.31.96-30.86,10.6-38.1,25.25l-82.65,167.18h0c22.61,11.74,50.44,2.63,61.73-20.21L225.95,60.94l-26.9,1.58Z"/><path class="cls-1" d="M123.51,162.63h0l-3.35-58.02c-1.48-25.57-23.41-45.09-48.98-43.58l3.35,57.97c1.48,25.57,23.4,45.11,48.98,43.63Z"/><path class="cls-1" d="M746.02,205.94l-10.04-108.23-46.18,4.29.85,9.2c-11.89-3.83-24.99-5-38.79-2.09-32.91,6.95-57.97,34.99-60.62,68.52-2.08,26.31,9.13,51.36,30.74,67.6,12.85,9.66,28.65,14.71,44.72,14.85.21,0,.41,0,.62,0,13.1,0,25.46-3.37,36.29-9.25l.52,5.59h0c25.51-2.37,44.27-24.96,41.9-50.47ZM666.62,213.72c-16.58,0-30.02-13.44-30.02-30.02s13.44-30.02,30.02-30.02,30.02,13.44,30.02,30.02-13.44,30.02-30.02,30.02Z"/><path class="cls-1" d="M339.89,97.71l-46.18,4.29.85,9.2c-10.85-3.5-22.71-4.77-35.19-2.76-31.49,5.09-61,36.04-64.1,67.79-4.34,44.38,29.9,82.55,73.73,83.82.75.02,1.49.03,2.23.03,13.1,0,25.46-3.37,36.29-9.25l.52,5.59c25.51-2.37,44.27-24.96,41.9-50.47l-10.04-108.23ZM271.04,212.25c-15.89,0-28.77-12.88-28.77-28.77s12.88-28.77,28.77-28.77,28.77,12.88,28.77,28.77-12.88,28.77-28.77,28.77Z"/><path class="cls-1" d="M570.98,183.31l-59.88,19.08-9.1-101.93c-2.65-26.19-27.57-44.18-53.26-38.45h0l11.16,129.21-35.06,11.17-9.1-101.93c-2.65-26.19-27.57-44.18-53.26-38.45h0l15.08,174.55c1.53,16.47,17.89,27.31,33.65,22.29l44.8-14.27c3.03-.97,5.89-2.24,8.56-3.77,3.68,14.02,18.54,22.62,32.9,18.04l44.81-14.27c19.93-6.35,32.62-25.88,30.32-46.67l-1.61-14.58Z"/><path class="cls-2" d="M865.15,184.82v53.42c0,12.55,10.17,22.73,22.73,22.73v-53.42c0-12.55-10.17-22.73-22.73-22.73Z"/><path class="cls-2" d="M925.28,179.02c0-12.55-10.17-22.73-22.72-22.73v85.34c0,10.68,8.65,19.33,19.33,19.33h13.72c12.55,0,22.72-10.17,22.72-22.73h0s-33.05,0-33.05,0v-25.45h10.32c12.55,0,22.72-10.17,22.72-22.73h0s-33.05,0-33.05,0v-11.04Z"/><path class="cls-2" d="M815.2,186.19c-5.2,0-10.16,1.07-14.66,3v-10.17c0-12.55-10.17-22.73-22.73-22.73h0v81.94c0,12.55,10.17,22.73,22.73,22.73v-3c4.5,1.93,9.46,3,14.66,3,20.62,0,37.39-16.77,37.39-37.39s-16.77-37.39-37.39-37.39ZM815.2,238.24c-8.08,0-14.66-6.58-14.66-14.66s6.58-14.66,14.66-14.66,14.66,6.58,14.66,14.66-6.58,14.66-14.66,14.66Z"/><path class="cls-2" d="M1021.45,238.24h-2.78c-8.34,0-15.76-4.01-20.44-10.21h14.1c20.87,0,37.12-20.18,30.25-42.06-4.15-13.22-16.51-21.67-30.36-21.64-23.1.06-41.87,18.86-41.87,41.97v6.34c0,26.68,21.63,48.32,48.32,48.32h25.51c0-12.55-10.17-22.73-22.73-22.73ZM1012.33,187.06c5.03,0,9.12,4.09,9.12,9.12s-4.09,9.12-9.12,9.12h-19.22c.52-10.15,8.94-18.25,19.22-18.25Z"/><path class="cls-2" d="M1097.38,198.1h-12.85c-3.35,0-6.01-3-5.44-6.45.45-2.71,3-4.59,5.75-4.59h3.24c12.55,0,22.73-10.17,22.73-22.73h-26.28c-16.21,0-29.28,13.73-28.18,30.18,1,15,14.15,26.31,29.18,26.31h11.85c5.37,0,9.62,4.89,8.54,10.44-.8,4.13-4.67,6.97-8.88,6.97h-18.02c-12.55,0-22.72,10.17-22.72,22.73h39.98c16.72,0,31.35-12.59,32.47-29.28,1.23-18.3-13.32-33.58-31.36-33.58Z"/><circle class="cls-2" cx="876.48" cy="167.64" r="11.34"/></svg>